<svg width="182" height="46" viewBox="0 0 182 46" fill="none" xmlns="http://www.w3.org/2000/svg">
<path d="M41.8896 17.3136H29.9241V3.36439H19.4942V17.3136H10.9839V0.165039H0.554321V25.5039H19.3022V44.956H29.9241V25.5039H41.8896V17.3136ZM66.7156 13.8583C62.6844 13.8583 59.3571 15.01 56.7976 17.1216L57.1815 9.12323H79.8329V0.165039H48.7352L48.0314 25.184H58.2693C59.741 23.3283 61.8526 22.4325 64.4121 22.4325C68.8272 22.4325 71.8985 25.12 71.8985 29.4711C71.8985 33.6942 68.9551 36.5737 64.4121 36.5737C59.869 36.5737 56.7976 33.7582 56.6057 29.0232H45.6639C45.5359 39.0052 53.1504 45.5958 64.2201 45.5958C75.3538 45.5958 82.8403 38.9412 82.8403 29.2151C82.8403 19.937 76.1217 13.8583 66.7156 13.8583ZM90.6867 44.956H100.861V10.9149L101.245 10.8509L110.587 41.1167H119.865L129.271 10.8509L129.655 10.9149V44.956H139.829V0.165039H123.704L115.386 30.111H115.13L106.811 0.165039H90.6867V44.956ZM181.907 18.7853H169.622V6.62773H160.855V18.7853H148.634V27.6795H160.855V39.837H169.622V27.6795H181.907V18.7853Z" fill="#050038"/>
</svg>
