<svg width="147" height="47" viewBox="0 0 147 47" fill="none" xmlns="http://www.w3.org/2000/svg">
<path d="M19.6538 0.556152C8.45612 0.556152 0.841675 7.53073 0.841675 17.3207C0.841675 26.5349 7.62429 32.9975 16.7744 32.9975C18.1181 32.9975 19.2699 32.8056 20.3577 32.4856L8.00821 45.9869H20.1657L31.0435 33.1895C33.7949 29.9262 38.53 24.4233 38.53 17.0008C38.53 7.40276 30.8515 0.556152 19.6538 0.556152ZM19.7178 25.1911C15.1108 25.1911 11.9114 22.0558 11.9114 17.4487C11.9114 12.8416 15.1747 9.70628 19.7178 9.70628C24.3889 9.70628 27.5242 12.9056 27.5242 17.4487C27.5242 21.9918 24.3889 25.1911 19.7178 25.1911ZM62.3951 0.556152C51.1974 0.556152 43.5829 7.53073 43.5829 17.3207C43.5829 26.5349 50.3656 32.9975 59.5157 32.9975C60.8594 32.9975 62.0112 32.8056 63.099 32.4856L50.7495 45.9869H62.907L73.7848 33.1895C76.5362 29.9262 81.2712 24.4233 81.2712 17.0008C81.2712 7.40276 73.5928 0.556152 62.3951 0.556152ZM62.4591 25.1911C57.852 25.1911 54.6527 22.0558 54.6527 17.4487C54.6527 12.8416 57.916 9.70628 62.4591 9.70628C67.1301 9.70628 70.2655 12.9056 70.2655 17.4487C70.2655 21.9918 67.1301 25.1911 62.4591 25.1911ZM99.6455 24.6792C106.812 24.6792 112.187 19.4963 112.187 12.6497C112.187 5.73909 106.812 0.556152 99.6455 0.556152C92.479 0.556152 87.168 5.73909 87.168 12.6497C87.168 19.4963 92.479 24.6792 99.6455 24.6792ZM95.1664 45.9869H105.532L138.422 1.19602H127.992L95.1664 45.9869ZM99.6455 17.0008C97.214 17.0008 95.4863 15.2092 95.4863 12.6497C95.4863 10.0262 97.214 8.23458 99.6455 8.23458C102.141 8.23458 103.869 10.0262 103.869 12.6497C103.869 15.2092 102.141 17.0008 99.6455 17.0008ZM133.878 46.6267C141.045 46.6267 146.42 41.5078 146.42 34.5972C146.42 27.7506 141.045 22.5677 133.878 22.5677C126.776 22.5677 121.401 27.7506 121.401 34.5972C121.401 41.5078 126.776 46.6267 133.878 46.6267ZM133.878 39.0123C131.447 39.0123 129.719 37.1567 129.719 34.5972C129.719 32.0377 131.447 30.1821 133.878 30.1821C136.374 30.1821 138.102 32.0377 138.102 34.5972C138.102 37.1567 136.374 39.0123 133.878 39.0123Z" fill="#050038"/>
</svg>
