<svg width="206" height="115" viewBox="0 0 206 115" fill="none" xmlns="http://www.w3.org/2000/svg">
<g filter="url(#filter0_d_2_100)">
<path d="M196.485 52.1713L42.8555 25.0822C38.5043 24.315 34.355 27.2203 33.5878 31.5715L32.3723 38.4651C31.605 42.8163 34.5104 46.9655 38.8615 47.7328L192.492 74.8219C196.843 75.5891 200.992 72.6837 201.759 68.3326L202.975 61.4389C203.742 57.0878 200.837 52.9385 196.485 52.1713Z" fill="#FFD02F"/>
<path d="M48.834 37.591L47.721 34.211L46.02 33.911L47.839 39.37L47.354 42.122L48.979 42.408L49.464 39.657L53.051 35.151L51.339 34.849L49.137 37.644L48.834 37.591Z" fill="#090909"/>
<path d="M57.281 35.752C54.833 35.32 53.206 36.82 52.805 39.095C52.403 41.37 53.419 43.336 55.868 43.768C58.316 44.2 59.943 42.7 60.344 40.425C60.745 38.15 59.729 36.183 57.281 35.752ZM56.122 42.327C54.681 42.073 54.21 40.817 54.462 39.387C54.714 37.958 55.586 36.938 57.027 37.193C58.479 37.448 58.939 38.702 58.687 40.132C58.435 41.562 57.573 42.583 56.122 42.327Z" fill="#090909"/>
<path d="M67.446 37.689L66.59 42.542C66.422 43.496 65.737 44.023 64.686 43.837C63.646 43.654 63.172 42.923 63.34 41.969L64.196 37.116L62.582 36.832L61.72 41.717C61.384 43.624 62.363 44.913 64.421 45.276C66.501 45.643 67.862 44.766 68.198 42.859L69.06 37.974L67.446 37.689Z" fill="#090909"/>
<path d="M74.621 38.955L70.981 38.313L69.618 46.047L71.232 46.332L71.746 43.418L73.836 43.787L74.362 46.884L75.987 47.171L75.403 43.705C76.209 43.445 76.746 42.803 76.916 41.839C77.182 40.333 76.333 39.256 74.621 38.955ZM72.345 40.016L73.981 40.305C75.043 40.492 75.392 40.855 75.266 41.57C75.151 42.22 74.729 42.525 73.786 42.359L71.988 42.042L72.345 40.016Z" fill="#090909"/>
<path d="M82.206 40.292L80.842 48.027L82.457 48.311L83.82 40.577L82.206 40.292Z" fill="#090909"/>
<path d="M89.04 41.497L85.812 40.928L84.448 48.662L87.676 49.232C90.049 49.65 91.535 48.315 91.944 45.997C92.355 43.667 91.413 41.915 89.04 41.497ZM87.725 47.755L86.316 47.506L87.172 42.653L88.58 42.901C90.14 43.176 90.523 44.361 90.287 45.704C90.052 47.037 89.285 48.03 87.725 47.755Z" fill="#090909"/>
<path d="M94.705 48.985L95.026 47.165L98.222 47.729L98.47 46.321L95.274 45.757L95.561 44.132L99.667 44.856L99.921 43.415L94.201 42.407L92.837 50.142L98.676 51.171L98.93 49.73L94.705 48.985Z" fill="#090909"/>
<path d="M105.291 52.338L106.927 52.626L105.821 44.456L103.318 44.015L99.495 51.316L101.088 51.596L102.085 49.616L105.031 50.136L105.291 52.338ZM104.031 45.737L104.508 45.822L104.846 48.651L102.745 48.281L104.031 45.737Z" fill="#090909"/>
<path d="M118.124 48.814C118.208 47.388 117.169 46.312 115.49 46.016C113.616 45.685 112.392 46.542 112.167 47.82C111.963 48.979 112.539 49.829 113.777 50.282L115.204 50.802C115.824 51.023 116.192 51.344 116.085 51.951C115.976 52.569 115.339 52.825 114.494 52.676C113.66 52.529 112.958 52.137 112.968 51.256L111.322 50.966C111.204 52.52 112.235 53.707 114.185 54.051C116.286 54.422 117.496 53.451 117.723 52.162C117.968 50.775 117.196 49.958 116.021 49.527L114.626 49.013C114.113 48.822 113.712 48.561 113.801 48.052C113.908 47.446 114.541 47.278 115.224 47.398C116.025 47.54 116.445 47.882 116.477 48.524L118.124 48.814Z" fill="#090909"/>
<path d="M126.017 48.017L119.593 46.884L119.343 48.303L121.748 48.727L120.634 55.043L122.248 55.328L123.362 49.012L125.767 49.436L126.017 48.017Z" fill="#090909"/>
<path d="M130.425 56.769L132.061 57.058L130.955 48.888L128.452 48.446L124.63 55.747L126.222 56.028L127.219 54.048L130.166 54.568L130.425 56.769ZM129.165 50.1691L129.642 50.2531L129.981 53.083L127.879 52.713L129.165 50.1691Z" fill="#090909"/>
<path d="M138.303 50.183L134.663 49.541L133.299 57.276L134.913 57.561L135.427 54.647L137.518 55.015L138.044 58.113L139.669 58.399L139.085 54.934C139.89 54.674 140.428 54.032 140.598 53.068C140.863 51.562 140.015 50.485 138.303 50.183ZM136.027 51.245L137.663 51.534C138.724 51.721 139.074 52.084 138.948 52.799C138.833 53.449 138.411 53.754 137.468 53.588L135.67 53.271L136.027 51.245Z" fill="#090909"/>
<path d="M148.369 51.958L141.945 50.826L141.695 52.245L144.1 52.6691L142.986 58.984L144.6 59.269L145.714 52.953L148.119 53.377L148.369 51.958Z" fill="#090909"/>
<path d="M155.021 55.32C155.105 53.894 154.066 52.818 152.387 52.522C150.513 52.191 149.29 53.048 149.065 54.326C148.86 55.485 149.436 56.3349 150.674 56.7879L152.102 57.308C152.722 57.529 153.09 57.85 152.983 58.457C152.874 59.075 152.237 59.331 151.392 59.182C150.558 59.035 149.856 58.6429 149.866 57.7619L148.219 57.472C148.102 59.026 149.132 60.213 151.082 60.557C153.184 60.928 154.394 59.957 154.621 58.668C154.866 57.281 154.094 56.464 152.919 56.033L151.524 55.519C151.01 55.328 150.609 55.067 150.699 54.558C150.806 53.952 151.439 53.784 152.121 53.904C152.923 54.046 153.343 54.388 153.375 55.03L155.021 55.32Z" fill="#090909"/>
<path d="M165.416 54.9641L164.885 57.976L161.462 57.372L161.993 54.361L160.379 54.076L159.015 61.8111L160.629 62.095L161.201 58.856L164.624 59.4601L164.053 62.6991L165.667 62.983L167.031 55.249L165.416 54.9641Z" fill="#090909"/>
<path d="M169.473 62.1691L169.794 60.3491L172.99 60.9131L173.238 59.5041L170.042 58.9411L170.329 57.3161L174.435 58.0401L174.689 56.5991L168.969 55.5911L167.605 63.3251L173.444 64.3551L173.698 62.9141L169.473 62.1691Z" fill="#090909"/>
<path d="M179.971 57.531L176.331 56.889L174.968 64.623L176.582 64.908L177.096 61.994L179.186 62.363L179.712 65.46L181.337 65.747L180.753 62.282C181.559 62.021 182.096 61.379 182.266 60.415C182.532 58.909 181.683 57.832 179.971 57.531ZM177.695 58.592L179.331 58.881C180.393 59.068 180.742 59.431 180.616 60.146C180.501 60.796 180.079 61.101 179.136 60.935L177.338 60.618L177.695 58.592Z" fill="#090909"/>
<path d="M184.844 64.879L185.165 63.059L188.36 63.623L188.609 62.215L185.413 61.651L185.699 60.026L189.805 60.75L190.059 59.309L184.339 58.301L182.976 66.035L188.814 67.065L189.069 65.624L184.844 64.879Z" fill="#090909"/>
</g>
<defs>
<filter id="filter0_d_2_100" x="0.24939" y="0.95929" width="234.848" height="113.985" filterUnits="userSpaceOnUse" color-interpolation-filters="sRGB">
<feFlood flood-opacity="0" result="BackgroundImageFix"/>
<feColorMatrix in="SourceAlpha" type="matrix" values="0 0 0 0 0 0 0 0 0 0 0 0 0 0 0 0 0 0 127 0" result="hardAlpha"/>
<feOffset dy="8"/>
<feGaussianBlur stdDeviation="16"/>
<feColorMatrix type="matrix" values="0 0 0 0 0.0196078 0 0 0 0 0 0 0 0 0 0.219608 0 0 0 0.08 0"/>
<feBlend mode="normal" in2="BackgroundImageFix" result="effect1_dropShadow_2_100"/>
<feBlend mode="normal" in="SourceGraphic" in2="effect1_dropShadow_2_100" result="shape"/>
</filter>
</defs>
</svg>
