<svg width="249" height="54" viewBox="0 0 249 54" fill="none" xmlns="http://www.w3.org/2000/svg">
<path d="M11.6293 45.4237H21.8033V0.632545H11.8853L11.7573 2.23222C11.5014 5.94367 9.77371 7.67132 5.99848 7.86328L0.687561 8.11922V16.3096H11.6293V45.4237ZM38.5089 33.2021C34.0938 33.2021 31.0864 35.9536 31.0864 39.6648C31.0864 42.9282 33.5819 45.5516 37.2931 45.5516C38.7648 45.5516 40.1086 45.1037 41.0044 44.3359C40.1725 47.7912 36.9732 49.3909 31.8542 48.751V53.1021C41.0044 54.2539 46.4433 49.9027 46.4433 42.1603C46.4433 36.4015 43.2439 33.2021 38.5089 33.2021ZM75.2444 46.0635C89.1936 46.0635 99.6235 36.2095 99.6235 23.0282C99.6235 9.91086 89.1936 -0.00732422 75.2444 -0.00732422C61.2952 -0.00732422 50.8654 9.91086 50.8654 23.0282C50.8654 36.2095 61.2952 46.0635 75.2444 46.0635ZM75.2444 36.5295C67.502 36.5295 62.0631 30.9626 62.0631 23.0282C62.0631 15.1578 67.502 9.59093 75.2444 9.59093C82.9868 9.59093 88.4258 15.1578 88.4258 23.0282C88.4258 30.9626 82.9868 36.5295 75.2444 36.5295ZM129.295 46.0635C143.245 46.0635 153.674 36.2095 153.674 23.0282C153.674 9.91086 143.245 -0.00732422 129.295 -0.00732422C115.346 -0.00732422 104.916 9.91086 104.916 23.0282C104.916 36.2095 115.346 46.0635 129.295 46.0635ZM129.295 36.5295C121.553 36.5295 116.114 30.9626 116.114 23.0282C116.114 15.1578 121.553 9.59093 129.295 9.59093C137.038 9.59093 142.477 15.1578 142.477 23.0282C142.477 30.9626 137.038 36.5295 129.295 36.5295ZM183.347 46.0635C197.297 46.0635 207.727 36.2095 207.727 23.0282C207.727 9.91086 197.297 -0.00732422 183.347 -0.00732422C169.398 -0.00732422 158.968 9.91086 158.968 23.0282C158.968 36.2095 169.398 46.0635 183.347 46.0635ZM183.347 36.5295C175.605 36.5295 170.166 30.9626 170.166 23.0282C170.166 15.1578 175.605 9.59093 183.347 9.59093C191.09 9.59093 196.529 15.1578 196.529 23.0282C196.529 30.9626 191.09 36.5295 183.347 36.5295ZM248.539 19.253H236.254V7.09544H227.488V19.253H215.266V28.1472H227.488V40.3047H236.254V28.1472H248.539V19.253Z" fill="#050038"/>
</svg>
